# xmcd
#
# Track frame offsets:
#	182
#	15652
#	32357
#	49720
#	63992
#	76627
#	89170
#	106345
#	120797
#	135885
#	153055
#	166665
#	191035
#	202400
#	214517
#	228802
#
# Disc length: 3443 seconds
#
# Revision: 2
# Processed by: cddbd v1.5.1PL2 Copyright (c) Steve Scherf et al.
# Submitted via: dBpowerAMP V4.0
#
DISCID=b90d7110
DTITLE=Elis Regina - Personalidade Disco 2
DYEAR=1900
DGENRE=Blues
TTITLE0=Aquarela do Brasil/Nega do Cabelo Duro
TTITLE1=As Curvas da Estrada de Santos
TTITLE2=Só Tinha de Ser Com Você
TTITLE3=These Are The Songs
TTITLE4=Arrastão
TTITLE5=Comunicação
TTITLE6=Pra Dizer Adeus
TTITLE7=20 Anos Blue
TTITLE8=Cartomante
TTITLE9=Amor até o Fim
TTITLE10=Copacabana Velha de Guerra
TTITLE11=Tributo à Mangueira
TTITLE12=Frevo
TTITLE13=Fechado Pra Balanço
TTITLE14=O Mestre Sala Dos Mares
TTITLE15=Pout-pourri com Jair Rodrigues
EXTD=
EXTT0=
EXTT1=
EXTT2=
EXTT3=
EXTT4=
EXTT5=
EXTT6=
EXTT7=
EXTT8=
EXTT9=
EXTT10=
EXTT11=
EXTT12=
EXTT13=
EXTT14=
EXTT15=
PLAYORDER=
